PathFileType	3	(X/Y/Z)	D:\Vicon Setup\UG\Test1\New Session\NewSession15.trc
DataRate	CameraRate	NumFrames	NumMarkers	Units	OrigDataRate	OrigDataStartFrame	OrigNumFrames
100.0	100.0	11	27	mm	100.0	541	359	
Frame#	Time	Sternum			LShoulder			RShoulder			LASIS			RASIS			RPSIS			LPSIS			RKneeLateral			RKneeMedial			RFibulaHead			RMidShank			RAnkleLateral			RAnkleMedial			RHeel			RMT5			RMT2			RToe			LKneeLateral			LKneeMedial			LFibulaHead			LMidShank			LAnkleLateral			LAnkleMedial			LHeel			LMT5			LMT2			LToe			
		X1	Y1	Z1	X2	Y2	Z2	X3	Y3	Z3	X4	Y4	Z4	X5	Y5	Z5	X6	Y6	Z6	X7	Y7	Z7	X8	Y8	Z8	X9	Y9	Z9	X10	Y10	Z10	X11	Y11	Z11	X12	Y12	Z12	X13	Y13	Z13	X14	Y14	Z14	X15	Y15	Z15	X16	Y16	Z16	X17	Y17	Z17	X18	Y18	Z18	X19	Y19	Z19	X20	Y20	Z20	X21	Y21	Z21	X22	Y22	Z22	X23	Y23	Z23	X24	Y24	Z24	X25	Y25	Z25	X26	Y26	Z26	X27	Y27	Z27	
541	5.4	-462.57474	1344.0118	-90.734642	-262.8916	1439.7281	-143.80841	-617.39484	1357.3645	-225.25397	-271.12329	980.96729	-106.44711	-528.10028	978.34167	-135.57419	-439.30536	995.36603	-301.04611	-310.36502	1000.8451	-285.3569	-559.10284	515.84985	-63.437023	-438.28491	507.29156	-7.5814428	-558.54205	434.28598	-56.106651	-460.10629	281.29776	-28.30221	-478.59424	92.503036	-115.45606	-415.74878	121.1743	-44.337879	-399.50266	63.624844	-163.55113	-561.10748	36.415329	16.358582	-499.93143	58.663601	42.447838	-516.08643	41.416656	82.951782	-160.04585	512.82092	-100.83631	-281.36053	473.46408	-98.46756	-144.13622	476.9642	-140.04642	-198.46501	345.17911	-238.06973	-123.666	267.2308	-429.77472	-204.30396	239.6169	-393.51889	-184.31621	313.4686	-482.84265	-82.082726	118.80014	-439.73166	-147.46925	112.73586	-403.61865	-153.75406	75.162727	-395.81516
542	5.41	-464.54471	1347.4971	-83.156853	-264.58984	1442.1742	-136.31033	-619.30542	1360.8882	-217.89752	-273.68283	984.22333	-99.096313	-530.25964	979.73279	-130.48181	-441.05133	998.02875	-294.33862	-312.19858	1003.7929	-277.91302	-559.18311	516.40057	-61.968723	-439.30502	508.47794	-6.8431506	-558.84003	434.74796	-55.598843	-460.58383	281.7428	-27.665211	-478.75223	92.868027	-115.1509	-416.02676	121.71428	-43.611614	-399.85605	64.244431	-163.23987	-561.40607	36.137184	16.465723	-500.53806	58.769135	42.580532	-516.19189	41.333782	83.02507	-165.91428	516.45264	-84.918739	-286.98883	477.40744	-83.266373	-149.66714	480.27859	-123.70162	-203.83995	348.33789	-219.61722	-128.03012	267.97424	-411.5289	-208.06082	240.76173	-374.2038	-188.88367	311.94461	-466.90088	-85.788734	119.33946	-416.24338	-150.87778	114.09506	-379.90585	-157.56761	77.494514	-370.51785
543	5.42	-466.35715	1350.7511	-75.799286	-265.91199	1444.4929	-128.95833	-621.05652	1364.1826	-210.6722	-276.19693	986.89825	-91.348015	-533.26263	983.03497	-122.50377	-442.7431	1000.5245	-287.67908	-313.96936	1006.6151	-270.52255	-559.62866	517.16431	-60.797443	-439.35239	509.71323	-6.5178094	-559.13519	435.255	-55.071106	-461.57697	282.16653	-26.955263	-478.87552	93.303841	-114.84004	-416.63956	122.21561	-42.700325	-399.55273	64.921204	-163.00342	-561.27716	36.157532	16.64325	-500.81366	59.040504	42.661667	-516.27734	41.197098	83.082611	-171.35371	519.94183	-69.322357	-292.4444	481.36124	-68.219231	-154.69049	483.68503	-107.50102	-208.89803	349.45724	-201.20747	-132.39549	267.63901	-393.30283	-212.72069	241.50374	-355.39044	-193.43929	309.38577	-450.60806	-90.249245	119.14063	-392.08923	-155.7916	115.08531	-355.65619	-161.77625	79.132217	-344.84253
544	5.43	-468.07434	1353.6257	-68.608551	-267.28674	1446.6395	-121.6585	-622.54022	1367.2408	-203.5383	-279.05658	989.8197	-84.121407	-536.46118	985.73907	-116.19595	-444.2944	1002.9865	-281.31458	-315.58319	1009.2979	-263.31647	-560.07733	517.81561	-59.845398	-439.89688	511.07639	-7.022563	-559.58044	436.0246	-54.799622	-461.06253	282.67764	-26.13203	-478.82791	93.850571	-114.35153	-416.1611	122.55638	-42.90918	-399.65302	65.61515	-162.73276	-561.50879	35.881596	16.889482	-500.76599	58.820786	42.769066	-516.22479	40.929825	83.222984	-176.68971	523.30249	-53.99641	-298.58057	485.28613	-53.011444	-160.42177	486.7233	-91.812561	-216.26337	352.30515	-181.52437	-137.51463	266.48557	-374.34833	-218.03703	241.43065	-335.88104	-198.40674	306.01865	-434.14249	-94.165451	118.84081	-368.08081	-159.58	115.91672	-331.10059	-165.02797	80.305405	-318.47482
545	5.44	-469.71307	1356.033	-61.579693	-269.05557	1448.0955	-115.01279	-624.27216	1370.2208	-196.53302	-281.18405	992.10065	-76.661942	-538.02844	987.41174	-110.90287	-445.68658	1005.3817	-274.95792	-317.04382	1011.8195	-256.22665	-560.53625	518.45898	-58.890125	-440.27731	511.97266	-6.6321983	-559.9574	436.5946	-54.315357	-461.93607	282.94608	-25.867268	-478.88083	94.351143	-113.98355	-416.24075	122.68613	-42.196632	-399.62326	66.413246	-162.37617	-561.62018	35.975716	16.696659	-500.82843	58.509068	42.936089	-516.41302	40.595898	83.346832	-181.54178	526.67401	-39.033855	-303.94315	488.93057	-38.205643	-166.10414	489.18369	-76.182648	-219.35907	353.09125	-165.7218	-143.21428	263.98318	-355.1604	-222.40416	240.74449	-316.59903	-203.08791	301.48886	-417.30618	-98.724274	117.29282	-343.36395	-163.46843	116.1858	-306.15427	-169.65749	81.285576	-292.37546
546	5.45	-471.21976	1358.0542	-54.763317	-270.22168	1450.0913	-107.43442	-625.83398	1373.0103	-189.66055	-284.84055	995.14117	-69.720657	-540.08392	989.23517	-105.4079	-446.92993	1007.8318	-268.67868	-318.43973	1014.1932	-249.17497	-561.50616	519.12769	-57.869614	-440.88477	512.66113	-5.3688469	-560.25745	437.10593	-53.931255	-462.41165	283.33585	-25.300407	-479.16791	95.076141	-113.78216	-416.87018	123.32376	-41.652866	-399.77332	67.557907	-162.1463	-561.44617	35.789856	16.725763	-500.90985	58.349136	43.244869	-516.51581	40.725273	83.267128	-186.85744	529.73785	-24.529881	-309.45013	492.67938	-23.890997	-171.08681	491.63745	-60.736176	-224.66968	353.89255	-149.22461	-147.00134	261.76489	-336.64758	-227.11688	239.16136	-296.69696	-207.53352	296.20807	-399.96848	-103.27139	115.32185	-318.258	-168.0984	115.85814	-281.13681	-174.06354	81.538658	-265.74924
547	5.46	-472.65308	1359.8751	-48.017452	-271.45676	1451.625	-100.26525	-627.25391	1375.5924	-182.98381	-286.52924	996.82312	-62.782013	-541.31	990.33105	-100.40765	-448.07739	1010.1823	-262.62933	-319.65533	1016.3268	-242.28545	-561.45593	519.53839	-56.79937	-441.57172	512.97272	-3.6510754	-560.80139	437.49301	-53.44339	-462.88528	283.89078	-24.389774	-479.04263	95.424599	-113.27427	-416.98386	123.58149	-41.252327	-399.71729	68.261261	-161.79909	-561.69183	35.640533	16.713209	-501.29742	58.864563	42.894764	-516.8717	41.004311	83.328377	-191.84366	532.84686	-10.627543	-314.96725	496.40466	-10.092189	-176.06308	493.68274	-45.763447	-230.86128	356.19852	-131.32512	-151.40109	258.52527	-317.17981	-231.99416	237.07903	-276.9252	-211.72551	290.12592	-382.38596	-107.99714	112.97947	-292.69601	-173.41638	115.23225	-255.56812	-178.81937	81.517586	-238.96107
548	5.47	-474.05099	1361.5259	-41.406796	-272.48187	1452.9883	-93.21801	-628.62433	1377.9392	-176.31802	-288.57538	999.05865	-56.228474	-540.9798	989.62451	-93.939804	-449.08786	1012.4479	-256.62714	-320.76279	1018.3486	-235.50594	-562.08295	520.22424	-56.001411	-441.85907	513.15289	-2.0127926	-560.87671	438.04221	-53.08107	-463.43094	284.17886	-23.865566	-479.11401	95.788498	-112.98866	-417.15628	123.6632	-41.299118	-399.72751	68.886597	-161.55186	-561.83502	35.58197	16.731676	-501.38699	58.543365	43.098011	-516.92334	40.93008	83.355804	-197.42876	535.46234	3.6491334	-320.24448	499.71326	2.8996153	-181.47995	495.38858	-31.180527	-237.53853	357.2551	-112.35439	-156.12007	253.62396	-296.94299	-236.52965	234.16869	-256.40903	-215.86124	283.5795	-364.78217	-112.55006	109.87254	-266.71265	-178.38826	113.88728	-229.99374	-183.66478	80.667717	-212.07072
549	5.48	-475.40784	1363.0378	-34.844479	-273.79935	1454.1886	-86.122017	-629.59686	1380.0635	-170.01714	-291.70853	999.83716	-49.334293	-547.11053	995.03235	-89.166397	-449.98123	1014.4931	-250.76312	-321.75052	1020.1306	-228.85452	-562.36902	520.70166	-55.209419	-443.25851	513.33807	0.11975033	-561.08411	438.39658	-52.824364	-463.15988	284.58563	-23.315681	-479.21045	96.07724	-112.7972	-417.70798	123.66073	-40.91888	-399.83731	69.481728	-161.38988	-562.01416	35.541412	16.688271	-501.58447	58.435593	43.109177	-516.91516	40.838898	83.406265	-203.27495	538.28662	15.290137	-325.28348	503.86398	15.560955	-186.32912	496.97769	-16.828392	-241.6777	356.08487	-97.519104	-161.14116	248.11504	-276.2038	-241.93594	231.18602	-236.36914	-219.50058	275.62613	-346.06064	-117.48302	106.46255	-239.84773	-183.65228	111.40518	-204.01979	-189.51379	79.659409	-184.91675
550	5.49	-476.72452	1364.4585	-28.373722	-274.8403	1455.219	-79.056763	-630.67169	1382.0952	-163.84875	-293.78024	1001.6047	-42.866051	-548.07007	994.55615	-86.703957	-450.7084	1016.4091	-245.03802	-322.63455	1021.6871	-222.31778	-562.91925	520.9505	-54.585598	-443.49771	513.07324	1.7427827	-561.24396	438.72736	-52.531677	-464.2276	284.62262	-22.948355	-479.28854	96.356056	-112.63442	-417.40082	123.9314	-40.811234	-399.81573	69.859756	-161.0849	-562.13263	35.499039	16.643782	-501.68985	58.139069	43.18005	-517.08514	40.807659	83.381409	-206.9688	541.0578	28.174532	-330.48807	507.483	27.435961	-191.26605	498.32617	-2.9194355	-246.63806	356.5061	-80.608177	-165.94112	242.35793	-255.39818	-246.43922	227.24905	-216.08717	-222.79707	267.09509	-327.4072	-122.45285	102.8677	-212.3756	-189.0863	109.95499	-177.67369	-196.19122	78.694	-157.0836
551	5.5	-478.02475	1365.6626	-21.99733	-275.84155	1456.1541	-71.964684	-631.49634	1383.766	-157.85793	-296.12885	1002.8456	-36.334106	-549.80396	995.60815	-81.984734	-451.34076	1018.1563	-239.31131	-323.41632	1023.0669	-215.89235	-562.95325	521.21851	-53.885643	-444.26248	512.70044	3.4964852	-561.15833	438.80817	-52.006981	-464.47955	284.75671	-22.615314	-479.35251	96.594986	-112.46967	-417.42358	124.15497	-40.622978	-399.92596	70.340652	-161.4716	-562.07629	35.29895	16.722244	-501.68549	58.364334	43.075001	-517.16803	40.773445	83.372787	-212.88907	543.20654	40.640076	-335.32239	510.89847	38.747032	-196.7518	499.61047	10.704814	-253.0204	356.6413	-62.584049	-169.81682	236.01939	-234.35843	-251.19388	223.1806	-195.63196	-225.82587	257.99643	-308.26053	-127.83487	99.255676	-184.64487	-194.57158	107.29375	-151.23885	-201.77556	77.508049	-129.43852
